<svg aria-hidden="true" style="position: absolute; width: 0; height: 0; overflow: hidden;" version="1.1" xmlns="http://www.w3.org/2000/svg" xmlns:xlink="http://www.w3.org/1999/xlink">
<defs>
<symbol id="iconFavourite" viewBox="0 0 32 32">
<path fill="#f59256" style="fill: var(--color1, #f59256)" d="M9.143 3.429c-3.786 0-6.857 3.125-6.857 6.978 0 3.112 1.2 10.497 13.013 17.962 0.199 0.126 0.442 0.201 0.702 0.201s0.503-0.075 0.707-0.205l-0.005 0.003c11.813-7.466 13.013-14.85 13.013-17.962 0-3.854-3.071-6.978-6.857-6.978s-6.857 4.229-6.857 4.229-3.071-4.229-6.857-4.229z"></path>
<path fill="none" stroke="#f59256" style="stroke: var(--color1, #f59256)" stroke-linejoin="round" stroke-linecap="round" stroke-miterlimit="4" stroke-width="2.2857" d="M9.143 3.429c-3.786 0-6.857 3.125-6.857 6.978 0 3.112 1.2 10.497 13.013 17.962 0.199 0.126 0.442 0.201 0.702 0.201s0.503-0.075 0.707-0.205l-0.005 0.003c11.813-7.466 13.013-14.85 13.013-17.962 0-3.854-3.071-6.978-6.857-6.978s-6.857 4.229-6.857 4.229-3.071-4.229-6.857-4.229z"></path>
</symbol>
<symbol id="iconNotFavourite" viewBox="0 0 32 32">
<path fill="#fff" style="fill: var(--color2, #fff)" opacity="0.6" d="M9.143 3.429c-3.786 0-6.857 3.125-6.857 6.978 0 3.112 1.2 10.497 13.013 17.962 0.199 0.126 0.442 0.201 0.702 0.201s0.503-0.075 0.707-0.205l-0.005 0.003c11.813-7.466 13.013-14.85 13.013-17.962 0-3.854-3.071-6.978-6.857-6.978s-6.857 4.229-6.857 4.229-3.071-4.229-6.857-4.229z"></path>
<path fill="none" stroke="#f59256" style="stroke: var(--color1, #f59256)" stroke-linejoin="round" stroke-linecap="round" stroke-miterlimit="4" stroke-width="2.2857" d="M9.143 3.429c-3.786 0-6.857 3.125-6.857 6.978 0 3.112 1.2 10.497 13.013 17.962 0.199 0.126 0.442 0.201 0.702 0.201s0.503-0.075 0.707-0.205l-0.005 0.003c11.813-7.466 13.013-14.85 13.013-17.962 0-3.854-3.071-6.978-6.857-6.978s-6.857 4.229-6.857 4.229-3.071-4.229-6.857-4.229z"></path>
</symbol>
<symbol id="iconDelete" viewBox="0 0 32 32">
<path d="M13.818 5.091h4.364c0-1.205-0.977-2.182-2.182-2.182s-2.182 0.977-2.182 2.182v0zM11.636 5.091c0-2.41 1.954-4.364 4.364-4.364s4.364 1.954 4.364 4.364v0h8.727c0.602 0 1.091 0.488 1.091 1.091s-0.488 1.091-1.091 1.091v0h-1.231l-2.63 19.283c-0.376 2.678-2.652 4.717-5.404 4.717h-7.654c-2.752-0-5.028-2.039-5.4-4.688l-0.003-0.029-2.63-19.283h-1.231c-0.603 0-1.091-0.488-1.091-1.091s0.488-1.091 1.091-1.091v0h8.727zM13.818 12.727c0-0.602-0.488-1.091-1.091-1.091s-1.091 0.488-1.091 1.091v0 10.909c0 0.602 0.488 1.091 1.091 1.091s1.091-0.488 1.091-1.091v0-10.909zM19.273 11.636c-0.602 0-1.091 0.488-1.091 1.091v0 10.909c0 0.602 0.488 1.091 1.091 1.091s1.091-0.488 1.091-1.091v0-10.909c0-0.602-0.488-1.091-1.091-1.091v0z"></path>
</symbol>
<symbol id="iconDeleteText" viewBox="0 0 32 32">
<path fill="none" stroke="#111" style="stroke: var(--color3, #111)" stroke-linejoin="round" stroke-linecap="round" stroke-miterlimit="4" stroke-width="2.6667" d="M16 28c6.627 0 12-5.373 12-12s-5.373-12-12-12v0c-6.627 0-12 5.373-12 12s5.373 12 12 12v0z"></path>
<path fill="none" stroke="#000" style="stroke: var(--color4, #000)" stroke-linejoin="round" stroke-linecap="round" stroke-miterlimit="4" stroke-width="2.6667" d="M20 12l-8 8M12 12l8 8"></path>
</symbol>
<symbol id="iconSearch" viewBox="0 0 32 32">
<path d="M20.667 18.667h-1.053l-0.373-0.36c1.301-1.502 2.093-3.475 2.093-5.634 0-0.002 0-0.004 0-0.006v0c0-4.786-3.88-8.667-8.667-8.667s-8.667 3.88-8.667 8.667c0 4.786 3.88 8.667 8.667 8.667v0c2.147 0 4.12-0.787 5.64-2.093l0.36 0.373v1.053l6.667 6.653 1.987-1.987-6.653-6.667zM12.667 18.667c-3.32 0-6-2.68-6-6s2.68-6 6-6 6 2.68 6 6-2.68 6-6 6z"></path>
</symbol>
<symbol id="iconError" viewBox="0 0 32 32">
<path fill="#e2001a" style="fill: var(--color5, #e2001a)" d="M0 16c0-8.837 7.163-16 16-16s16 7.163 16 16-7.163 16-16 16-16-7.163-16-16zM10.938 13.006l2.944 2.938-2.944 2.992c-0.581 0.589-0.581 1.539 0 2.070 0.587 0.637 1.536 0.637 2.069 0l2.938-2.888 2.992 2.888c0.589 0.637 1.539 0.637 2.070 0 0.637-0.531 0.637-1.482 0-2.069l-2.888-2.994 2.888-2.938c0.637-0.531 0.637-1.482 0-2.069-0.531-0.581-1.482-0.581-2.069 0l-2.994 2.944-2.938-2.944c-0.531-0.581-1.482-0.581-2.069 0-0.581 0.587-0.581 1.536 0 2.069z"></path>
</symbol>
<symbol id="iconClose" viewBox="0 0 32 32">
<path d="M17.253 16l7.369-7.369c0.133-0.154 0.214-0.357 0.214-0.578 0-0.491-0.398-0.889-0.889-0.889-0.221 0-0.424 0.081-0.579 0.215l0.001-0.001-7.369 7.369-7.369-7.378c-0.162-0.162-0.385-0.261-0.631-0.261-0.493 0-0.893 0.4-0.893 0.893 0 0.246 0.1 0.47 0.261 0.631v0l7.378 7.369-7.378 7.369c-0.191 0.164-0.311 0.406-0.311 0.675 0 0.491 0.398 0.889 0.889 0.889 0.27 0 0.511-0.12 0.674-0.31l0.001-0.001 7.378-7.369 7.369 7.369c0.154 0.133 0.357 0.214 0.578 0.214 0.491 0 0.889-0.398 0.889-0.889 0-0.221-0.081-0.424-0.215-0.579l0.001 0.001-7.369-7.369z"></path>
</symbol>
<symbol id="iconAdd" viewBox="0 0 32 32">
<path fill="none" stroke="#fff" style="stroke: var(--color2, #fff)" stroke-linejoin="miter" stroke-linecap="round" stroke-miterlimit="4" stroke-width="2.6667" d="M16 26.667v-10.667M16 16v-10.667M16 16h10.667M16 16h-10.667"></path>
</symbol>
<symbol id="iconAddPicture" viewBox="0 0 32 32">
<path stroke-linejoin="miter" stroke-linecap="round" stroke-miterlimit="4" stroke-width="0.9014" d="M16 26.666v-10.666M16 16v-10.667M16 16h10.667M16 16h-10.667"></path>
</symbol>
</defs>
</svg>
